<?xml version="1.0" standalone="no"?>
<svg xmlns="http://www.w3.org/2000/svg" width="16" height="16"><rect width="16" height="16" opacity="0"></rect><g><path d="M11.46 10.72Q12.06 9.97 12.41 9.04Q12.75 8.11 12.75 7.12Q12.75 5.58 11.98 4.28Q11.22 2.98 9.91 2.22Q8.61 1.46 7.07 1.46Q5.54 1.46 4.23 2.22Q2.93 2.98 2.17 4.28Q1.41 5.58 1.41 7.12Q1.41 8.66 2.17 9.96Q2.93 11.26 4.23 12.02Q5.54 12.78 7.07 12.78Q8.11 12.78 9.05 12.43Q9.98 12.08 10.75 11.44L13.73 14.4Q13.87 14.54 14.08 14.54Q14.29 14.54 14.43 14.4Q14.58 14.26 14.58 14.05Q14.58 13.84 14.43 13.7L11.46 10.72ZM2.42 7.12Q2.42 5.86 3.05 4.78Q3.68 3.71 4.74 3.08Q5.81 2.45 7.07 2.45Q8.34 2.45 9.41 3.08Q10.48 3.71 11.11 4.78Q11.74 5.86 11.74 7.12Q11.74 8.38 11.11 9.46Q10.48 10.53 9.41 11.16Q8.34 11.79 7.07 11.79Q5.81 11.79 4.74 11.16Q3.68 10.53 3.05 9.46Q2.42 8.38 2.42 7.12Z" fill="rgba(0,0,0,0.6)"></path></g></svg>