<?xml version="1.0" standalone="no"?>
<svg xmlns="http://www.w3.org/2000/svg" width="32" height="32"><rect width="32" height="32" opacity="0"></rect><g mask="url(#hms_mask_0)"><path d="M2.02 16Q2.02 19.81 3.89 23.01Q5.76 26.21 8.98 28.1Q12.19 29.98 16 29.98Q19.81 29.98 23.02 28.1Q26.24 26.21 28.13 22.99Q30.02 19.78 30.02 16Q30.02 12.19 28.13 8.98Q26.24 5.76 23.02 3.87Q19.81 1.98 16 1.98Q12.19 1.98 8.98 3.87Q5.76 5.76 3.89 8.98Q2.02 12.19 2.02 16Z" fill="rgba(0,0,0,0.9019607843137255)"></path></g><defs><mask id="hms_mask_0"><rect width="32" height="32" fill="#ffffff"></rect><g><path d="M7.36 23.87Q7.87 22.3 9.1 21.09Q10.34 19.87 11.95 19.2Q13.57 18.53 15.2 18.53L16.8 18.53Q18.43 18.53 20.05 19.2Q21.66 19.87 22.88 21.09Q24.1 22.3 24.61 23.87Q22.91 25.73 20.7 26.7Q18.5 27.68 16 27.68Q13.44 27.68 11.23 26.69Q9.02 25.7 7.36 23.87ZM12.86 8.64Q14.18 7.33 15.98 7.34Q17.79 7.36 19.1 8.67Q20.42 9.98 20.43 11.79Q20.45 13.6 19.14 14.91Q17.82 16.22 16.02 16.21Q14.21 16.19 12.9 14.88Q11.58 13.57 11.57 11.76Q11.55 9.95 12.86 8.64Z" fill="#000000"></path></g></mask></defs></svg>